<svg width="24" height="24" viewBox="0 0 24 24" fill="none" xmlns="http://www.w3.org/2000/svg">
<path d="M3.75 5.25C4.16421 5.25 4.5 4.91421 4.5 4.5C4.5 4.08579 4.16421 3.75 3.75 3.75C3.33579 3.75 3 4.08579 3 4.5C3 4.91421 3.33579 5.25 3.75 5.25Z" stroke="black" stroke-width="1.5" stroke-miterlimit="10" stroke-linecap="round" stroke-linejoin="round"/>
<path d="M7.5 4.5H21" stroke="black" stroke-width="1.5" stroke-miterlimit="10" stroke-linecap="round" stroke-linejoin="round"/>
<path d="M16 12L21 12" stroke="black" stroke-width="1.5" stroke-miterlimit="10" stroke-linecap="round" stroke-linejoin="round"/>
<path d="M16 19L21 19" stroke="black" stroke-width="1.5" stroke-miterlimit="10" stroke-linecap="round" stroke-linejoin="round"/>
<path d="M7.03711 8.90039L7.33496 8.90625C8.02995 8.93878 8.71525 9.09148 9.35938 9.3584C10.0953 9.66339 10.7636 10.1118 11.3252 10.6768H11.3242C12.4609 11.8137 13.0995 13.3553 13.0996 14.9629C13.0996 16.57 12.4612 18.1111 11.3252 19.248L11.3262 19.249C10.7668 19.8281 10.0972 20.2897 9.35742 20.6074C8.61759 20.9252 7.82177 21.0926 7.0166 21.0996C6.21151 21.1066 5.41314 20.9533 4.66797 20.6484C3.92273 20.3436 3.24515 19.8935 2.67578 19.3242C2.10654 18.755 1.65645 18.078 1.35156 17.333C1.08473 16.6809 0.934091 15.9876 0.905273 15.2852L0.900391 14.9844C0.907387 14.1793 1.07477 13.3833 1.39258 12.6436C1.71032 11.904 2.17198 11.235 2.75098 10.6758L3.24414 10.1826L3.31543 10.2539L4.15625 11.1006L4.22656 11.1719L4.15527 11.2422L3.73145 11.6582L3.73242 11.6592C2.98616 12.4054 2.51448 13.3822 2.39453 14.4307C2.27458 15.4792 2.51377 16.5371 3.07227 17.4326C3.63081 18.3281 4.4762 19.0087 5.4707 19.3623C6.46509 19.7158 7.55035 19.7226 8.54883 19.3809C9.54733 19.039 10.4007 18.3683 10.9697 17.4795C11.5387 16.5907 11.7901 15.5351 11.6826 14.4854C11.575 13.4355 11.1144 12.4532 10.377 11.6982C9.66593 10.9703 8.73756 10.4955 7.7334 10.3438V11.4854H6.34082V8.90039H7.03711ZM4.99707 11.9404L8.01953 14.9629L7.94922 15.0342L7.1084 15.875L7.03711 15.9453L4.01465 12.9229L3.94336 12.8525L4.92578 11.8701L4.99707 11.9404Z" fill="black" stroke="black" stroke-width="0.2"/>
</svg>
